<?xml version="1.0" encoding="UTF-8"?>
<svg width="100pt" height="100pt" version="1.1" viewBox="0 0 100 100" xmlns="http://www.w3.org/2000/svg">
 <g fill-rule="evenodd">
  <path d="m39.383 14.77-15.387 17.727v9.0508h3.7734v-6.457h14.363v-16.539h30.168v22.996h3.7773v-26.777z"/>
  <path d="m27.77 69.156h44.531v12.254l-44.531-0.042968zm34.746-18.691h2.8242l5.0703 8.1992v-8.1992h2.5v12.75h-2.4609l-5.457-8.5664v8.5664h-2.4766zm-27.215 0v9.3125c0 1.1641-0.35547 2.1055-1.0586 2.8242-0.70313 0.70703-1.75 1.0508-3.1328 1.0508-1.2383 0-2.2031-0.32422-2.8984-0.97656-0.6875-0.66406-1.0312-1.6562-1.0312-2.9766v-1.3047h2.4141v1.1758c0 1.2578 0.5 1.9141 1.5156 1.9141 1.3047 0 1.5234-0.97266 1.5234-1.957v-9.0625zm6.5273-0.42188c1.4336 0 2.8789 0.40625 3.9141 1.4375 0.71875 0.71875 1.0898 1.7383 1.125 2.7461h-2.5352c-0.027343-0.85156-0.62109-1.6562-1.4766-1.8164-0.91406-0.17969-1.957-0.22656-2.7773 0.26562-0.77344 0.49609-0.75781 1.8281 0.09375 2.2383 1 0.53516 2.1523 0.62109 3.2188 0.95313 1.1133 0.33984 2.3594 0.63281 3.168 1.5391 0.75391 0.96875 0.85156 2.3164 0.55859 3.4766-0.40625 1.3594-1.6875 2.2656-3.0273 2.5625-1.332 0.33203-2.75 0.24609-4.082-0.0625-1.3242-0.29687-2.5039-1.1367-2.9805-2.5547-0.125-0.375-0.24219-1.4414-0.24219-1.4414h2.5703c-0.03125 0.97266 0.76953 1.7695 1.6719 1.9727 0.95312 0.22656 2.0352 0.22266 2.9102-0.26172 0.79297-0.42969 0.99609-1.6172 0.41016-2.2891-0.74609-0.6875-1.832-0.71094-2.7695-0.97266-1.3633-0.33594-2.8672-0.64844-3.8203-1.7539-0.74219-0.90625-0.8125-2.1992-0.55078-3.2969 0.35938-1.4648 1.7969-2.3711 3.1992-2.6211 0.46484-0.082031 0.94141-0.12109 1.4219-0.12109zm12.77-0.007813c0.73828-0.007812 1.4648 0.089844 2.1641 0.27344 1.3828 0.38281 2.5898 1.3555 3.2188 2.6523 0.9375 1.8789 1.0234 4.082 0.67578 6.125-0.28906 1.6758-1.2969 3.2773-2.8867 3.9844-0.9375 0.43359-1.9844 0.58203-3.0156 0.58203-1.7773 0.03125-3.6758-0.54297-4.7852-2.0078-1.2734-1.6445-1.4609-3.8477-1.2852-5.8555 0.16016-1.8125 0.91797-3.6875 2.4727-4.7383 1.0195-0.68359 2.2266-0.99609 3.4414-1.0156zm-34.934-5.4961v24.617h4.332v15.984l52.082 0.050781v-16.035h4.3359v-24.617z"/>
  <path d="m54.73 52.398c-1.0117 0.003906-2.0352 0.38672-2.6211 1.2461-0.90234 1.3164-0.93359 3.0156-0.78125 4.543 0.12109 1.1172 0.63281 2.3125 1.707 2.8125 0.52734 0.26562 1.1289 0.36328 1.7188 0.36328 1.2383 0.046875 2.4531-0.68359 2.957-1.8164 0.63672-1.3789 0.59766-2.9688 0.30859-4.4219-0.23828-1.1836-1.0508-2.3359-2.2852-2.6094-0.32422-0.078125-0.66016-0.11719-1.0039-0.11719z"/>
 </g>
</svg>
